<?xml version="1.0" encoding="UTF-8" standalone="no"?>
<!DOCTYPE svg PUBLIC "-//W3C//DTD SVG 1.1//EN"
 "http://www.w3.org/Graphics/SVG/1.1/DTD/svg11.dtd">
<!-- Generated by graphviz version 2.43.0 (0)
 -->
<!-- Title: pvi_products Pages: 1 -->
<svg width="446pt" height="60pt"
 viewBox="0.00 0.00 445.50 60.00" xmlns="http://www.w3.org/2000/svg" xmlns:xlink="http://www.w3.org/1999/xlink">
<g id="graph0" class="graph" transform="scale(1 1) rotate(0) translate(4 56)">
<title>pvi_products</title>
<!-- Intermediate -->
<g id="node1" class="node">
<title>Intermediate</title>
<polygon fill="#8bc4e9" stroke="black" points="259.5,-46.5 164.5,-46.5 164.5,-5.5 259.5,-5.5 259.5,-46.5"/>
<text text-anchor="middle" x="212" y="-34.5" font-family="Arial" font-size="10.00">[Record(),</text>
<text text-anchor="middle" x="212" y="-23.5" font-family="Arial" font-size="10.00"> Channel(),</text>
<text text-anchor="middle" x="212" y="-12.5" font-family="Arial" font-size="10.00"> AsynParameter()]</text>
</g>
<!-- Formatter -->
<g id="node5" class="node">
<title>Formatter</title>
<polygon fill="#8bc4e9" stroke="black" points="336.5,-44 277.5,-44 277.5,-8 336.5,-8 336.5,-44"/>
<text text-anchor="middle" x="307" y="-23.5" font-family="Arial" font-size="10.00">Formatter</text>
</g>
<!-- Intermediate&#45;&gt;Formatter -->
<g id="edge3" class="edge">
<title>Intermediate&#45;&gt;Formatter</title>
<path fill="none" stroke="black" d="M259.87,-26C262.3,-26 264.74,-26 267.17,-26"/>
<polygon fill="black" stroke="black" points="277.18,-26 267.18,-30.5 272.18,-26 267.18,-26 267.18,-26 267.18,-26 272.18,-26 267.18,-21.5 277.18,-26 277.18,-26"/>
</g>
<!-- Products -->
<g id="node2" class="node">
<title>Products</title>
<polygon fill="#8bc4e9" stroke="black" points="437.5,-52 354.5,-52 354.5,0 437.5,0 437.5,-52"/>
<text text-anchor="middle" x="396" y="-40" font-family="Arial" font-size="10.00">Template</text>
<text text-anchor="middle" x="396" y="-29" font-family="Arial" font-size="10.00">Screens</text>
<text text-anchor="middle" x="396" y="-18" font-family="Arial" font-size="10.00">Driver Params</text>
<text text-anchor="middle" x="396" y="-7" font-family="Arial" font-size="10.00">Documentation</text>
</g>
<!-- Components -->
<g id="node3" class="node">
<title>Components</title>
<polygon fill="#8bc4e9" stroke="black" points="72,-44 0,-44 0,-8 72,-8 72,-44"/>
<text text-anchor="middle" x="36" y="-23.5" font-family="Arial" font-size="10.00">Components</text>
</g>
<!-- Producer -->
<g id="node4" class="node">
<title>Producer</title>
<polygon fill="#8bc4e9" stroke="black" points="146,-44 90,-44 90,-8 146,-8 146,-44"/>
<text text-anchor="middle" x="118" y="-23.5" font-family="Arial" font-size="10.00">Producer</text>
</g>
<!-- Components&#45;&gt;Producer -->
<g id="edge1" class="edge">
<title>Components&#45;&gt;Producer</title>
<path fill="none" stroke="black" d="M72.2,-26C74.66,-26 77.13,-26 79.59,-26"/>
<polygon fill="black" stroke="black" points="89.73,-26 79.73,-30.5 84.73,-26 79.73,-26 79.73,-26 79.73,-26 84.73,-26 79.73,-21.5 89.73,-26 89.73,-26"/>
</g>
<!-- Producer&#45;&gt;Intermediate -->
<g id="edge2" class="edge">
<title>Producer&#45;&gt;Intermediate</title>
<path fill="none" stroke="black" d="M146.27,-26C148.89,-26 151.52,-26 154.14,-26"/>
<polygon fill="black" stroke="black" points="164.25,-26 154.25,-30.5 159.25,-26 154.25,-26 154.25,-26 154.25,-26 159.25,-26 154.25,-21.5 164.25,-26 164.25,-26"/>
</g>
<!-- Formatter&#45;&gt;Products -->
<g id="edge4" class="edge">
<title>Formatter&#45;&gt;Products</title>
<path fill="none" stroke="black" d="M336.55,-26C339.03,-26 341.51,-26 344,-26"/>
<polygon fill="black" stroke="black" points="354.2,-26 344.2,-30.5 349.2,-26 344.2,-26 344.2,-26 344.2,-26 349.2,-26 344.2,-21.5 354.2,-26 354.2,-26"/>
</g>
</g>
</svg>
