<?xml version="1.0" encoding="UTF-8" standalone="no"?>
<!DOCTYPE svg PUBLIC "-//W3C//DTD SVG 1.1//EN"
 "http://www.w3.org/Graphics/SVG/1.1/DTD/svg11.dtd">
<!-- Generated by graphviz version 2.43.0 (0)
 -->
<!-- Title: pvi_flowchart Pages: 1 -->
<svg width="555pt" height="368pt"
 viewBox="0.00 0.00 555.00 368.00" xmlns="http://www.w3.org/2000/svg" xmlns:xlink="http://www.w3.org/1999/xlink">
<g id="graph0" class="graph" transform="scale(1 1) rotate(0) translate(4 364)">
<title>pvi_flowchart</title>
<!-- pilatus.pvi.yaml -->
<g id="node1" class="node">
<title>pilatus.pvi.yaml</title>
<polygon fill="#8bc4e9" stroke="black" points="88.5,-248 3.5,-248 3.5,-212 88.5,-212 88.5,-248"/>
<text text-anchor="middle" x="46" y="-227.5" font-family="Arial" font-size="10.00">pilatus.pvi.yaml</text>
</g>
<!-- PVI -->
<g id="node4" class="node">
<title>PVI</title>
<ellipse fill="#8bc4e9" stroke="black" cx="164" cy="-203" rx="19.36" ry="19.36"/>
<ellipse fill="none" stroke="black" cx="164" cy="-203" rx="23.35" ry="23.35"/>
<text text-anchor="middle" x="164" y="-200.5" font-family="Arial" font-size="10.00">PVI</text>
</g>
<!-- pilatus.pvi.yaml&#45;&gt;PVI -->
<g id="edge2" class="edge">
<title>pilatus.pvi.yaml&#45;&gt;PVI</title>
<path fill="none" stroke="black" d="M88.55,-220.33C102.5,-217.08 117.84,-213.51 130.95,-210.46"/>
<polygon fill="black" stroke="black" points="140.92,-208.14 132.2,-214.79 136.05,-209.27 131.18,-210.41 131.18,-210.41 131.18,-210.41 136.05,-209.27 130.16,-206.02 140.92,-208.14 140.92,-208.14"/>
</g>
<!-- pilatus.cpp -->
<g id="node2" class="node">
<title>pilatus.cpp</title>
<polygon fill="#8bc4e9" stroke="black" points="78,-36 14,-36 14,0 78,0 78,-36"/>
<text text-anchor="middle" x="46" y="-15.5" font-family="Arial" font-size="10.00">pilatus.cpp</text>
</g>
<!-- libPilatus.so -->
<g id="node13" class="node">
<title>libPilatus.so</title>
<polygon fill="#8bc4e9" stroke="black" points="199,-36 129,-36 129,0 199,0 199,-36"/>
<text text-anchor="middle" x="164" y="-15.5" font-family="Arial" font-size="10.00">libPilatus.so</text>
</g>
<!-- pilatus.cpp&#45;&gt;libPilatus.so -->
<g id="edge11" class="edge">
<title>pilatus.cpp&#45;&gt;libPilatus.so</title>
<path fill="none" stroke="black" d="M78.09,-18C90.6,-18 105.26,-18 118.85,-18"/>
<polygon fill="black" stroke="black" points="128.97,-18 118.97,-22.5 123.97,-18 118.97,-18 118.97,-18 118.97,-18 123.97,-18 118.97,-13.5 128.97,-18 128.97,-18"/>
</g>
<!-- pilatus.h -->
<g id="node3" class="node">
<title>pilatus.h</title>
<polygon fill="#8bc4e9" stroke="black" points="73,-90 19,-90 19,-54 73,-54 73,-90"/>
<text text-anchor="middle" x="46" y="-69.5" font-family="Arial" font-size="10.00">pilatus.h</text>
</g>
<!-- pilatus.h&#45;&gt;libPilatus.so -->
<g id="edge12" class="edge">
<title>pilatus.h&#45;&gt;libPilatus.so</title>
<path fill="none" stroke="black" d="M73.03,-59.88C86.64,-53.55 103.66,-45.62 119.23,-38.38"/>
<polygon fill="black" stroke="black" points="128.69,-33.97 121.52,-42.27 124.15,-36.08 119.62,-38.19 119.62,-38.19 119.62,-38.19 124.15,-36.08 117.72,-34.11 128.69,-33.97 128.69,-33.97"/>
</g>
<!-- pilatus_parameters.h -->
<g id="node6" class="node">
<title>pilatus_parameters.h</title>
<polygon fill="#8bc4e9" stroke="black" points="359.5,-90 252.5,-90 252.5,-54 359.5,-54 359.5,-90"/>
<text text-anchor="middle" x="306" y="-69.5" font-family="Arial" font-size="10.00">pilatus_parameters.h</text>
</g>
<!-- PVI&#45;&gt;pilatus_parameters.h -->
<g id="edge3" class="edge">
<title>PVI&#45;&gt;pilatus_parameters.h</title>
<path fill="none" stroke="black" d="M174.63,-181.86C186.18,-158.62 207.61,-121.6 236,-99 238.39,-97.1 240.93,-95.32 243.57,-93.65"/>
<polygon fill="black" stroke="black" points="252.29,-88.71 245.81,-97.55 247.94,-91.18 243.59,-93.64 243.59,-93.64 243.59,-93.64 247.94,-91.18 241.37,-89.72 252.29,-88.71 252.29,-88.71"/>
</g>
<!-- pilatus_parameters.template -->
<g id="node7" class="node">
<title>pilatus_parameters.template</title>
<polygon fill="#8bc4e9" stroke="black" points="376,-306 236,-306 236,-270 376,-270 376,-306"/>
<text text-anchor="middle" x="306" y="-285.5" font-family="Arial" font-size="10.00">pilatus_parameters.template</text>
</g>
<!-- PVI&#45;&gt;pilatus_parameters.template -->
<g id="edge4" class="edge">
<title>PVI&#45;&gt;pilatus_parameters.template</title>
<path fill="none" stroke="black" d="M181.39,-218.91C195.11,-231.58 215.66,-249.11 236,-261 238.78,-262.62 241.67,-264.19 244.63,-265.69"/>
<polygon fill="black" stroke="black" points="253.65,-269.99 242.69,-269.75 249.14,-267.84 244.63,-265.69 244.63,-265.69 244.63,-265.69 249.14,-267.84 246.57,-261.63 253.65,-269.99 253.65,-269.99"/>
</g>
<!-- pilatus_parameters.opi -->
<g id="node8" class="node">
<title>pilatus_parameters.opi</title>
<polygon fill="#8bc4e9" stroke="black" points="363.5,-252 248.5,-252 248.5,-216 363.5,-216 363.5,-252"/>
<text text-anchor="middle" x="306" y="-231.5" font-family="Arial" font-size="10.00">pilatus_parameters.opi</text>
</g>
<!-- PVI&#45;&gt;pilatus_parameters.opi -->
<g id="edge5" class="edge">
<title>PVI&#45;&gt;pilatus_parameters.opi</title>
<path fill="none" stroke="black" d="M187.18,-207.91C201.17,-211.01 220.03,-215.19 238.56,-219.29"/>
<polygon fill="black" stroke="black" points="248.49,-221.49 237.76,-223.72 243.61,-220.41 238.73,-219.33 238.73,-219.33 238.73,-219.33 243.61,-220.41 239.7,-214.93 248.49,-221.49 248.49,-221.49"/>
</g>
<!-- pilatus_parameters.adl -->
<g id="node9" class="node">
<title>pilatus_parameters.adl</title>
<polygon fill="#8bc4e9" stroke="black" points="363.5,-198 248.5,-198 248.5,-162 363.5,-162 363.5,-198"/>
<text text-anchor="middle" x="306" y="-177.5" font-family="Arial" font-size="10.00">pilatus_parameters.adl</text>
</g>
<!-- PVI&#45;&gt;pilatus_parameters.adl -->
<g id="edge6" class="edge">
<title>PVI&#45;&gt;pilatus_parameters.adl</title>
<path fill="none" stroke="black" d="M187.18,-199.36C201.17,-197.06 220.03,-193.96 238.56,-190.91"/>
<polygon fill="black" stroke="black" points="248.49,-189.28 239.36,-195.34 243.56,-190.09 238.63,-190.9 238.63,-190.9 238.63,-190.9 243.56,-190.09 237.9,-186.46 248.49,-189.28 248.49,-189.28"/>
</g>
<!-- pilatus_parameters.edl -->
<g id="node10" class="node">
<title>pilatus_parameters.edl</title>
<polygon fill="#8bc4e9" stroke="black" points="363.5,-144 248.5,-144 248.5,-108 363.5,-108 363.5,-144"/>
<text text-anchor="middle" x="306" y="-123.5" font-family="Arial" font-size="10.00">pilatus_parameters.edl</text>
</g>
<!-- PVI&#45;&gt;pilatus_parameters.edl -->
<g id="edge7" class="edge">
<title>PVI&#45;&gt;pilatus_parameters.edl</title>
<path fill="none" stroke="black" d="M182.9,-188.57C196.8,-177.82 216.88,-163.28 236,-153 239.04,-151.37 242.2,-149.78 245.42,-148.25"/>
<polygon fill="black" stroke="black" points="254.61,-144.08 247.36,-152.31 250.05,-146.14 245.5,-148.21 245.5,-148.21 245.5,-148.21 250.05,-146.14 243.64,-144.11 254.61,-144.08 254.61,-144.08"/>
</g>
<!-- pilatus_parameters.csv -->
<g id="node11" class="node">
<title>pilatus_parameters.csv</title>
<polygon fill="#8bc4e9" stroke="black" points="365,-360 247,-360 247,-324 365,-324 365,-360"/>
<text text-anchor="middle" x="306" y="-339.5" font-family="Arial" font-size="10.00">pilatus_parameters.csv</text>
</g>
<!-- PVI&#45;&gt;pilatus_parameters.csv -->
<g id="edge8" class="edge">
<title>PVI&#45;&gt;pilatus_parameters.csv</title>
<path fill="none" stroke="black" d="M173.62,-224.44C184.65,-249.37 205.98,-290.25 236,-315 237.53,-316.26 239.12,-317.46 240.76,-318.61"/>
<polygon fill="black" stroke="black" points="249.35,-323.95 238.49,-322.5 245.11,-321.32 240.86,-318.68 240.86,-318.68 240.86,-318.68 245.11,-321.32 243.24,-314.85 249.35,-323.95 249.35,-323.95"/>
</g>
<!-- pilatus.local.yaml -->
<g id="node5" class="node">
<title>pilatus.local.yaml</title>
<polygon fill="#8bc4e9" stroke="black" points="92,-194 0,-194 0,-158 92,-158 92,-194"/>
<text text-anchor="middle" x="46" y="-173.5" font-family="Arial" font-size="10.00">pilatus.local.yaml</text>
</g>
<!-- pilatus.local.yaml&#45;&gt;PVI -->
<g id="edge1" class="edge">
<title>pilatus.local.yaml&#45;&gt;PVI</title>
<path fill="none" stroke="black" d="M92.18,-186.52C105.17,-189.54 119.06,-192.77 131.07,-195.57"/>
<polygon fill="black" stroke="black" points="141.07,-197.9 130.31,-200.01 136.2,-196.76 131.33,-195.63 131.33,-195.63 131.33,-195.63 136.2,-196.76 132.35,-191.25 141.07,-197.9 141.07,-197.9"/>
</g>
<!-- pilatus_parameters.h&#45;&gt;pilatus.h -->
<g id="edge10" class="edge">
<title>pilatus_parameters.h&#45;&gt;pilatus.h</title>
<path fill="none" stroke="black" d="M252.48,-72C202.15,-72 127.52,-72 83.41,-72"/>
<polygon fill="black" stroke="black" points="73.16,-72 83.16,-67.5 78.16,-72 83.16,-72 83.16,-72 83.16,-72 78.16,-72 83.16,-76.5 73.16,-72 73.16,-72"/>
<text text-anchor="middle" x="164" y="-75" font-family="Arial" font-size="10.00">included in</text>
</g>
<!-- pilatus.template -->
<g id="node12" class="node">
<title>pilatus.template</title>
<polygon fill="#8bc4e9" stroke="black" points="547,-306 461,-306 461,-270 547,-270 547,-306"/>
<text text-anchor="middle" x="504" y="-285.5" font-family="Arial" font-size="10.00">pilatus.template</text>
</g>
<!-- pilatus_parameters.template&#45;&gt;pilatus.template -->
<g id="edge9" class="edge">
<title>pilatus_parameters.template&#45;&gt;pilatus.template</title>
<path fill="none" stroke="black" d="M376.1,-288C400.57,-288 427.68,-288 450.53,-288"/>
<polygon fill="black" stroke="black" points="460.71,-288 450.71,-292.5 455.71,-288 450.71,-288 450.71,-288 450.71,-288 455.71,-288 450.71,-283.5 460.71,-288 460.71,-288"/>
<text text-anchor="middle" x="418.5" y="-291" font-family="Arial" font-size="10.00">included in</text>
</g>
<!-- pilatus.opi -->
<g id="node17" class="node">
<title>pilatus.opi</title>
<polygon fill="#8bc4e9" stroke="black" points="534.5,-252 473.5,-252 473.5,-216 534.5,-216 534.5,-252"/>
<text text-anchor="middle" x="504" y="-231.5" font-family="Arial" font-size="10.00">pilatus.opi</text>
</g>
<!-- pilatus_parameters.opi&#45;&gt;pilatus.opi -->
<g id="edge16" class="edge">
<title>pilatus_parameters.opi&#45;&gt;pilatus.opi</title>
<path fill="none" stroke="black" d="M363.69,-234C395.61,-234 434.69,-234 463.32,-234"/>
<polygon fill="black" stroke="black" points="473.37,-234 463.37,-238.5 468.37,-234 463.37,-234 463.37,-234 463.37,-234 468.37,-234 463.37,-229.5 473.37,-234 473.37,-234"/>
<text text-anchor="middle" x="418.5" y="-237" font-family="Arial" font-size="10.00">linked from</text>
</g>
<!-- pilatus.adl -->
<g id="node15" class="node">
<title>pilatus.adl</title>
<polygon fill="#8bc4e9" stroke="black" points="534.5,-198 473.5,-198 473.5,-162 534.5,-162 534.5,-198"/>
<text text-anchor="middle" x="504" y="-177.5" font-family="Arial" font-size="10.00">pilatus.adl</text>
</g>
<!-- pilatus_parameters.adl&#45;&gt;pilatus.adl -->
<g id="edge14" class="edge">
<title>pilatus_parameters.adl&#45;&gt;pilatus.adl</title>
<path fill="none" stroke="black" d="M363.69,-180C395.61,-180 434.69,-180 463.32,-180"/>
<polygon fill="black" stroke="black" points="473.37,-180 463.37,-184.5 468.37,-180 463.37,-180 463.37,-180 463.37,-180 468.37,-180 463.37,-175.5 473.37,-180 473.37,-180"/>
<text text-anchor="middle" x="418.5" y="-183" font-family="Arial" font-size="10.00">linked from</text>
</g>
<!-- pilatus.edl -->
<g id="node16" class="node">
<title>pilatus.edl</title>
<polygon fill="#8bc4e9" stroke="black" points="534.5,-144 473.5,-144 473.5,-108 534.5,-108 534.5,-144"/>
<text text-anchor="middle" x="504" y="-123.5" font-family="Arial" font-size="10.00">pilatus.edl</text>
</g>
<!-- pilatus_parameters.edl&#45;&gt;pilatus.edl -->
<g id="edge15" class="edge">
<title>pilatus_parameters.edl&#45;&gt;pilatus.edl</title>
<path fill="none" stroke="black" d="M363.69,-126C395.61,-126 434.69,-126 463.32,-126"/>
<polygon fill="black" stroke="black" points="473.37,-126 463.37,-130.5 468.37,-126 463.37,-126 463.37,-126 463.37,-126 468.37,-126 463.37,-121.5 473.37,-126 473.37,-126"/>
<text text-anchor="middle" x="418.5" y="-129" font-family="Arial" font-size="10.00">linked from</text>
</g>
<!-- pilatus.rst -->
<g id="node14" class="node">
<title>pilatus.rst</title>
<polygon fill="#8bc4e9" stroke="black" points="533.5,-360 474.5,-360 474.5,-324 533.5,-324 533.5,-360"/>
<text text-anchor="middle" x="504" y="-339.5" font-family="Arial" font-size="10.00">pilatus.rst</text>
</g>
<!-- pilatus_parameters.csv&#45;&gt;pilatus.rst -->
<g id="edge13" class="edge">
<title>pilatus_parameters.csv&#45;&gt;pilatus.rst</title>
<path fill="none" stroke="black" d="M365.01,-342C396.94,-342 435.71,-342 464.01,-342"/>
<polygon fill="black" stroke="black" points="474.31,-342 464.31,-346.5 469.31,-342 464.31,-342 464.31,-342 464.31,-342 469.31,-342 464.31,-337.5 474.31,-342 474.31,-342"/>
<text text-anchor="middle" x="418.5" y="-345" font-family="Arial" font-size="10.00">included in</text>
</g>
</g>
</svg>
